<?xml version="1.0" encoding="UTF-8"?>
<svg width="510px" height="510px" viewBox="0 0 510 510" version="1.1" xmlns="http://www.w3.org/2000/svg" xmlns:xlink="http://www.w3.org/1999/xlink">
    <title>Shape</title>
    <g id="Page-1" stroke="none" stroke-width="1" fill="none" fill-rule="evenodd">
        <g id="Artboard" transform="translate(-984.000000, -273.000000)" fill="#e93e1c" fill-rule="nonzero">
            <g id="linkedin-logo(1)" transform="translate(984.000000, 273.000000)">
                <path d="M459,0 L51,0 C22.95,0 0,22.95 0,51 L0,459 C0,487.05 22.95,510 51,510 L459,510 C487.05,510 510,487.05 510,459 L510,51 C510,22.95 487.05,0 459,0 Z M153,433.5 L76.5,433.5 L76.5,204 L153,204 L153,433.5 Z M114.75,160.65 C89.25,160.65 68.85,140.25 68.85,114.75 C68.85,89.25 89.25,68.85 114.75,68.85 C140.25,68.85 160.65,89.25 160.65,114.75 C160.65,140.25 140.25,160.65 114.75,160.65 Z M433.5,433.5 L357,433.5 L357,298.35 C357,277.951 339.15,260.1 318.75,260.1 C298.35,260.1 280.5,277.951 280.5,298.35 L280.5,433.5 L204,433.5 L204,204 L280.5,204 L280.5,234.6 C293.25,214.2 321.3,198.9 344.25,198.9 C392.7,198.9 433.5,239.7 433.5,288.15 L433.5,433.5 Z" id="Shape"></path>
            </g>
        </g>
    </g>
</svg>