<svg xmlns="http://www.w3.org/2000/svg" viewBox="0 0 240 240" version="1.1">
  <path fill="#e93e1c" d="m 90.493263,211.69577 c -7.136632,0 -5.923331,-2.58806 -8.384808,-9.11464 L 61.124407,136.25241 222.65311,44.212336" id="path16"
    style="fill:#de3b1b;stroke-width:1.79891" />
  <path fill="#e93e1c" d="m 90.493263,211.69577 c 5.506657,0 7.938767,-2.41882 11.013327,-5.28896 l 29.36885,-27.42849 -36.63398,-21.21751" id="path18"
    style="fill:#cc3618;stroke-width:1.79891" />
  <path fill="url(#b)"
    d="m 94.23779,157.7661 88.76737,62.98964 c 10.13041,5.36828 17.43959,2.58806 19.96347,-9.03177 L 239.10151,48.184338 C 242.80015,33.939431 233.448,27.476334 223.75628,31.702206 L 11.584654,110.28014 c -14.4825173,5.57985 -14.3962458,13.3405 -2.639526,16.7977 L 63.393151,143.40131 189.44612,67.020053 c 5.95086,-3.466026 11.41347,-1.604314 6.93105,2.217834"
    id="path20" style="fill:#e93e1c;stroke-width:1.79891" />
</svg>